<?xml version="1.0" encoding="utf-8"?>
<!DOCTYPE svg PUBLIC "-//W3C//DTD SVG 1.1//EN" "http://www.w3.org/Graphics/SVG/1.1/DTD/svg11.dtd">
<svg version="1.1" xmlns="http://www.w3.org/2000/svg" xmlns:xlink="http://www.w3.org/1999/xlink" x="0px" y="0px" width="190px"
	 height="33px" viewBox="0 0 190 33" enable-background="new 0 0 190 33" xml:space="preserve">
<g id="paleta_01__x5F_fotos">
	<g>
		<path fill-rule="evenodd" clip-rule="evenodd" fill="#808285" d="M50.066,15.976h6.175v-0.342c0-1.406-0.222-2.415-0.667-3.039
			c-0.447-0.623-1.168-0.938-2.167-0.938c-1.029,0-1.825,0.363-2.377,1.08C50.479,13.458,50.156,14.538,50.066,15.976L50.066,15.976
			z M49.974,16.945v1.025c0,2.299,0.281,3.91,0.848,4.823c0.565,0.914,1.538,1.371,2.924,1.371c1.172,0,2.164-0.329,2.988-0.992
			c0.824-0.666,1.381-1.599,1.684-2.802h0.726c-0.321,1.555-0.969,2.725-1.945,3.509c-0.969,0.777-2.257,1.169-3.86,1.169
			c-1.816,0-3.343-0.643-4.576-1.927c-1.233-1.291-1.852-2.873-1.852-4.741c0-2.058,0.631-3.795,1.893-5.22
			c1.262-1.424,2.807-2.135,4.636-2.135c1.712,0,3.058,0.51,4.042,1.525c0.994,1.016,1.566,2.478,1.726,4.394H49.974z"/>
		<polygon fill-rule="evenodd" clip-rule="evenodd" fill="#808285" points="38.893,24.657 38.893,23.857 41.043,23.857 
			41.043,12.08 39.027,12.08 39.027,11.023 43.493,11.026 43.493,23.857 45.35,23.857 45.35,24.657 		"/>
		<path fill-rule="evenodd" clip-rule="evenodd" fill="#808285" d="M40.598,7.262c0-0.543,0.176-0.995,0.528-1.369
			c0.348-0.371,0.776-0.56,1.277-0.56c0.49,0,0.914,0.188,1.259,0.569c0.35,0.38,0.524,0.831,0.524,1.359
			c0,0.54-0.174,1.004-0.524,1.387c-0.345,0.388-0.769,0.579-1.259,0.579c-0.501,0-0.929-0.191-1.277-0.579
			C40.774,8.266,40.598,7.802,40.598,7.262z"/>
		<path fill-rule="evenodd" clip-rule="evenodd" fill="#808285" d="M22.687,24.657v-0.8h1.857V2.174h-2.355v-0.77l5.117,0.006
			v11.472c0.834-0.845,2.193-1.52,2.66-1.705c1.034-0.41,1.719-0.392,2.584-0.372c1.212,0.024,2.412,0.545,3.007,1.067
			c0.715,0.635,0.933,1.675,0.933,2.845v9.141h2.539v0.8h-7.277v-0.8h2.031v-9.241c0-0.877-0.178-1.594-0.433-2.075
			c-0.152-0.284-0.653-0.871-1.796-0.871c-1.532,0-2.686,0.869-3.201,1.37c-1.04,1.012-1.047,1.324-1.047,2.887v7.931h1.857v0.8
			H22.687z"/>
		<path fill-rule="evenodd" clip-rule="evenodd" fill="#808285" d="M108.299,24.657v-0.8h1.858V2.174h-2.359v-0.77l5.117,0.006
			v11.472c0.835-0.845,2.195-1.52,2.664-1.705c1.032-0.41,1.719-0.392,2.581-0.372c1.212,0.024,2.415,0.545,3.008,1.067
			c0.717,0.635,0.933,1.675,0.933,2.845v9.141h3.108v0.8h-7.844v-0.8h2.03v-9.241c0-0.877-0.18-1.594-0.433-2.075
			c-0.149-0.284-0.654-0.871-1.796-0.871c-1.536,0-2.685,0.869-3.2,1.37c-1.04,1.012-1.051,1.324-1.051,2.887v7.931h1.859v0.8
			H108.299z"/>
		<path fill-rule="evenodd" clip-rule="evenodd" fill="#808285" d="M125.027,24.657v-0.8h1.856V11.889h-2.357v-0.772l5.117,0.009
			v1.757c0.835-0.845,2.194-1.52,2.664-1.705c1.031-0.41,1.262-0.392,2.124-0.372c1.214,0.024,2.417,0.545,3.009,1.067
			c0.717,0.635,0.933,1.675,0.933,2.845v9.141h2.865v0.8h-7.6v-0.8h2.031v-9.241c0-0.877-0.226-1.785-0.436-2.075
			c-0.192-0.265-0.652-0.871-1.796-0.871c-1.533,0-2.426,1.075-2.743,1.37c-0.476,0.442-1.051,1.324-1.051,2.887v7.931h1.857v0.8
			H125.027z"/>
		<path fill-rule="evenodd" clip-rule="evenodd" fill="#808285" d="M173.656,24.657v-0.8h1.859V2.174h-2.355v-0.77l5.115,0.006
			v11.472c0.833-0.845,2.194-1.52,2.66-1.705c1.036-0.41,1.72-0.392,2.582-0.372c1.213,0.024,2.415,0.545,3.008,1.067
			c0.718,0.635,0.937,1.675,0.937,2.845v9.141H190v0.8h-7.276v-0.8h2.031v-9.241c0-0.877-0.181-1.594-0.435-2.075
			c-0.152-0.284-0.652-0.871-1.8-0.871c-1.53,0-2.682,0.869-3.202,1.37c-1.036,1.012-1.044,1.324-1.044,2.887v7.931h1.857v0.8
			H173.656z"/>
		<path fill-rule="evenodd" clip-rule="evenodd" fill="#808285" d="M14.863,22.262V11.885h-2.401v-0.732
			c2.886-0.954,4.318-4.442,4.442-5.391l0.012-0.1h0.333v5.49h3.883v0.732h-3.883v10.052c0,0.783,0.257,1.338,0.47,1.549
			c0.202,0.201,0.967,0.425,1.436,0.425c0.292,0,0.858-0.169,1.156-0.362c0.364-0.238,0.805-0.945,0.953-1.54l0.621,0.028
			c-0.484,1.946-1.202,2.258-1.714,2.574c-0.517,0.318-1.712,0.475-2.408,0.475c-0.864,0-1.525-0.429-2.011-0.843
			C15.513,24.038,14.863,23.222,14.863,22.262z"/>
		<path fill-rule="evenodd" clip-rule="evenodd" fill="#808285" d="M166.042,22.262V11.885h-2.402v-0.732
			c2.882-0.954,4.322-4.442,4.443-5.391l0.012-0.1h0.333v5.49h3.883v0.732h-3.883v10.052c0,0.783,0.259,1.338,0.47,1.549
			c0.202,0.201,0.967,0.425,1.435,0.425c0.29,0,0.861-0.169,1.16-0.362c0.36-0.238,0.802-0.945,0.95-1.54l0.626,0.028
			c-0.489,1.946-1.205,2.258-1.721,2.574c-0.515,0.318-1.711,0.475-2.405,0.475c-0.867,0-1.526-0.429-2.013-0.843
			C166.694,24.038,166.042,23.222,166.042,22.262z"/>
		<path fill-rule="evenodd" clip-rule="evenodd" fill="#808285" d="M7.991,22.802c-0.409,0.692-1.019,1.246-1.838,1.66
			c-0.814,0.415-1.697,0.623-2.645,0.623c-1.077,0-1.936-0.285-2.565-0.85C0.314,23.665,0,22.913,0,21.971
			c0-1.554,0.698-2.779,2.1-3.679c1.398-0.893,3.336-1.354,5.812-1.377v-3.271c0-0.666-0.204-1.162-0.617-1.482
			c-0.41-0.316-1.045-0.473-1.897-0.473c-0.679,0-1.274,0.129-1.788,0.391c-0.517,0.263-0.777,0.528-0.777,0.802
			c0,0.044,0.155,0.221,0.451,0.536c0.293,0.307,0.441,0.667,0.441,1.063c0,0.432-0.119,0.784-0.36,1.055
			c-0.24,0.274-0.543,0.409-0.917,0.409c-0.416,0-0.741-0.149-0.981-0.444c-0.241-0.291-0.36-0.688-0.36-1.189
			c0-0.94,0.465-1.725,1.405-2.348c0.934-0.622,2.139-0.937,3.618-0.937c1.561,0,2.659,0.271,3.293,0.808
			c0.636,0.538,0.952,1.502,0.952,2.889v7.602c0,0.534,0.048,0.884,0.14,1.048c0.093,0.167,0.258,0.251,0.498,0.251
			c0.26,0,0.495-0.12,0.702-0.351c0.207-0.236,0.348-0.527,0.42-0.88h0.518c-0.067,0.797-0.338,1.437-0.821,1.927
			c-0.484,0.486-1.083,0.729-1.802,0.729c-0.613,0-1.089-0.187-1.434-0.561C8.255,24.112,8.05,23.552,7.991,22.802L7.991,22.802z
			 M7.912,17.683c-1.781,0-3.14,0.294-4.083,0.875c-0.942,0.585-1.414,1.435-1.414,2.546c0,0.794,0.221,1.43,0.657,1.903
			c0.436,0.476,1.019,0.716,1.747,0.716c0.908,0,1.646-0.258,2.224-0.769c0.579-0.51,0.869-1.172,0.869-1.991V17.683z"/>
		<path fill-rule="evenodd" clip-rule="evenodd" fill="#808285" d="M159.172,22.802c-0.41,0.692-1.019,1.246-1.838,1.66
			c-0.817,0.415-1.7,0.623-2.643,0.623c-1.084,0-1.939-0.285-2.568-0.85c-0.628-0.57-0.942-1.322-0.942-2.265
			c0-1.554,0.698-2.779,2.099-3.679c1.396-0.893,3.332-1.354,5.81-1.377v-3.271c0-0.666-0.201-1.162-0.614-1.482
			c-0.412-0.316-1.05-0.473-1.898-0.473c-0.679,0-1.272,0.129-1.787,0.391c-0.516,0.263-0.776,0.528-0.776,0.802
			c0,0.044,0.151,0.221,0.448,0.536c0.294,0.307,0.441,0.667,0.441,1.063c0,0.432-0.121,0.784-0.357,1.055
			c-0.241,0.274-0.545,0.409-0.921,0.409c-0.414,0-0.74-0.149-0.983-0.444c-0.239-0.291-0.36-0.688-0.36-1.189
			c0-0.94,0.469-1.725,1.408-2.348c0.933-0.622,2.14-0.937,3.615-0.937c1.564,0,2.662,0.271,3.297,0.808
			c0.634,0.538,0.952,1.502,0.952,2.889v7.602c0,0.534,0.046,0.884,0.139,1.048c0.095,0.167,0.258,0.251,0.496,0.251
			c0.26,0,0.497-0.12,0.704-0.351c0.207-0.236,0.348-0.527,0.417-0.88h0.517c-0.065,0.797-0.334,1.437-0.819,1.927
			c-0.483,0.486-1.083,0.729-1.8,0.729c-0.615,0-1.093-0.187-1.435-0.561C159.432,24.112,159.23,23.552,159.172,22.802
			L159.172,22.802z M159.089,17.683c-1.783,0-3.139,0.294-4.081,0.875c-0.942,0.585-1.414,1.435-1.414,2.546
			c0,0.794,0.221,1.43,0.655,1.903c0.441,0.476,1.023,0.716,1.749,0.716c0.908,0,1.646-0.258,2.226-0.769
			c0.579-0.51,0.865-1.172,0.865-1.991V17.683z"/>
		<path fill-rule="evenodd" clip-rule="evenodd" fill="#808285" d="M140.78,24.657v-0.8h2.159V12.08h-2.096v-1.076l4.617,0.04v3.4
			c0.542-1.108,1.125-1.938,1.762-2.489c0.637-0.552,1.327-0.822,2.065-0.822c0.602,0,1.071,0.147,1.39,0.456
			c0.321,0.308,0.478,0.75,0.478,1.328c0,0.432-0.125,0.773-0.373,1.038c-0.252,0.26-0.584,0.392-1,0.392
			c-0.374,0-0.698-0.145-0.967-0.429c-0.275-0.283-0.408-0.612-0.408-1.001c0-0.086,0.011-0.198,0.031-0.322
			c0.018-0.121,0.035-0.207,0.035-0.234c0-0.094-0.017-0.152-0.035-0.188c-0.02-0.034-0.054-0.051-0.099-0.051
			c-0.585,0-1.204,0.544-1.846,1.634c-0.645,1.086-0.965,2.204-0.965,3.35v6.753h2.385v0.8H140.78z"/>
		<path fill-rule="evenodd" clip-rule="evenodd" fill="#808285" d="M96.979,18.041c0,2.517,0.257,4.203,0.767,5.061
			c0.512,0.859,1.4,1.287,2.669,1.287c1.252,0,2.14-0.452,2.665-1.363c0.524-0.906,0.788-2.558,0.788-4.953
			c0-2.542-0.257-4.228-0.763-5.063c-0.508-0.832-1.388-1.252-2.659-1.252c-1.274,0-2.172,0.445-2.69,1.328
			C97.235,13.972,96.979,15.622,96.979,18.041L96.979,18.041z M93.746,18.035c0-1.972,0.651-3.634,1.941-4.983
			c1.294-1.351,2.883-2.025,4.758-2.025c1.913,0,3.502,0.663,4.757,1.992c1.262,1.328,1.89,2.988,1.89,4.988
			c0,1.958-0.648,3.624-1.954,4.99c-1.303,1.37-2.882,2.052-4.724,2.052c-1.916,0-3.502-0.666-4.767-1.999
			C94.382,21.72,93.746,20.045,93.746,18.035z"/>
		<polygon fill-rule="evenodd" clip-rule="evenodd" fill="#808285" points="79.203,25.085 75.052,12.08 73.07,12.08 73.07,11.35 
			79.974,11.35 79.974,12.08 77.869,12.08 80.794,21.104 84.144,11.35 85.23,11.35 88.706,21.068 91.599,12.08 89.101,12.08 
			89.101,11.35 94.433,11.35 94.433,12.08 92.578,12.08 88.334,25.085 87.317,25.085 83.734,15.178 80.346,25.085 		"/>
		<rect x="49.299" y="6.87" fill-rule="evenodd" clip-rule="evenodd" fill="#808285" width="7.43" height="0.816"/>
		<rect x="66.994" fill-rule="evenodd" clip-rule="evenodd" fill="#808285" width="0.969" height="33"/>
	</g>
</g>
</svg>
