# 3ds Max Wavefront OBJ Exporter v0.97b - (c)2007 guruware
# File Created: 25.09.2016 20:58:12

mtllib caixa2.mtl

#
# object blockOrange
#

v  757.1010 548.6189 -121.0117
v  757.1010 548.6189 120.9770
v  257.1586 24.3127 120.9770
v  257.1586 24.3127 -121.0117
v  271.2343 549.5004 -121.0117
v  271.2343 549.5002 120.9770
v  90.0769 363.3326 -121.0117
v  90.0769 363.3326 120.9770
v  -256.3986 -24.8793 -121.0117
v  -256.3986 -24.8793 120.9770
v  224.8706 -25.7607 120.9770
v  224.8706 -25.7607 -121.0117
v  -759.2782 -551.9409 -121.0117
v  -759.2782 -551.9409 120.9770
v  -274.6222 -551.9409 -121.0117
v  -274.6222 -551.9409 120.9770
# 16 vertices

vn 0.7294 -0.6841 -0.0000
vn 0.0000 1.0000 -0.0000
vn -0.7427 0.6696 -0.0000
vn -0.8944 -0.4472 -0.0000
vn -0.7158 0.6983 -0.0000
vn 0.0000 -1.0000 -0.0000
vn 0.7250 -0.6887 -0.0000
vn 0.0000 0.0000 1.0000
vn 0.0000 0.0000 -1.0000
# 9 vertex normals

vt 0.0005 0.9995 0.9987
vt 0.0005 0.0005 0.9987
vt 0.3299 0.0005 0.5232
vt 0.3299 0.9995 0.5232
vt 0.6794 0.9995 0.9995
vt 0.6794 0.0005 0.9995
vt 0.9995 0.0005 0.9987
vt 0.9995 0.9995 0.9987
vt 0.5601 0.9995 0.8306
vt 0.5601 0.0005 0.8306
vt 0.0005 0.5232 0.6701
vt 0.9995 0.5232 0.6701
vt 0.9995 0.8306 0.5601
vt 0.0005 0.8306 0.5601
vt 0.3318 0.9995 0.4785
vt 0.3318 0.0005 0.4785
vt 0.6489 0.0005 0.4777
vt 0.6489 0.9995 0.4777
vt 0.0005 0.9995 0.0005
vt 0.0005 0.0005 0.0005
vt 0.6802 0.9995 0.0005
vt 0.6802 0.0005 0.0005
vt 0.9995 0.0005 0.0005
vt 0.9995 0.9995 0.0005
vt 0.3511 0.9995 0.4777
vt 0.3511 0.0005 0.4777
vt 0.6701 0.5232 0.0005
vt 0.9995 0.9987 0.0005
vt 0.6794 0.9995 0.0005
vt 0.5601 0.8306 0.0005
vt 0.3318 0.4785 0.0005
vt 0.3198 0.0005 0.0005
vt 0.6489 0.4777 0.0005
vt 0.3299 0.5232 0.9995
vt 0.4399 0.8306 0.9995
vt 0.3206 0.9995 0.9995
vt 0.0005 0.9987 0.9995
vt 0.6682 0.4785 0.9995
vt 0.3511 0.4777 0.9995
vt 0.6802 0.0005 0.9995
vt 0.9995 0.0005 0.9995
# 41 texture coords

g blockOrange
usemtl _caixaorange
s 2
f 1/1/1 2/2/1 3/3/1 4/4/1 
s 4
f 5/5/2 6/6/2 2/7/2 1/8/2 
s 8
f 7/9/3 8/10/3 6/6/3 5/5/3 
s 17
f 4/11/4 3/12/4 8/13/4 7/14/4 
s 2
f 9/15/2 10/16/2 11/17/2 12/18/2 
s 4
f 13/19/5 14/20/5 10/16/5 9/15/5 
s 8
f 15/21/6 16/22/6 14/23/6 13/24/6 
s 17
f 12/25/7 11/26/7 16/22/7 15/21/7 
s 1024
f 3/27/8 2/28/8 6/29/8 8/30/8 
f 10/31/8 14/20/8 16/32/8 11/33/8 
f 4/34/9 7/35/9 5/36/9 1/37/9 
f 9/38/9 12/39/9 15/40/9 13/41/9 
# 12 polygons

#
# object blockBlue
#

v  -496.2093 550.4954 -121.0117
v  -496.2093 550.4954 120.9770
v  -6.6759 550.4954 120.9770
v  -6.6759 550.4954 -121.0117
v  -228.4988 24.4536 -121.0117
v  -228.4988 24.4536 120.9770
v  254.4620 24.4536 -121.0117
v  254.4620 24.4536 120.9770
v  -95.3420 -366.3232 -121.0117
v  -95.3420 -366.3232 120.9770
v  225.5420 -28.5814 120.9770
v  225.5420 -28.5813 -121.0117
v  0.2579 -552.0352 -121.0117
v  0.2579 -552.0352 120.9770
v  486.1694 -552.0352 -121.0117
v  486.1694 -552.0352 120.9770
# 16 vertices

vn 0.0000 1.0000 -0.0000
vn -0.8954 -0.4452 -0.0000
vn 0.0000 -1.0000 -0.0000
vn 0.8994 0.4371 -0.0000
vn -0.7328 0.6804 -0.0000
vn -0.8786 -0.4776 -0.0000
vn 0.8934 0.4493 -0.0000
vn 0.0000 0.0000 1.0000
vn 0.0000 0.0000 -1.0000
# 9 vertex normals

vt 0.0005 0.9995 0.9995
vt 0.0005 0.0005 0.9995
vt 0.4983 0.0005 0.9995
vt 0.4983 0.9995 0.9995
vt 0.0005 0.5229 0.2727
vt 0.9995 0.5229 0.2727
vt 0.9995 0.9995 0.0005
vt 0.0005 0.9995 0.0005
vt 0.2361 0.9995 0.5229
vt 0.2361 0.0005 0.5229
vt 0.7273 0.0005 0.5229
vt 0.7273 0.9995 0.5229
vt 0.9995 0.9995 0.4983
vt 0.0005 0.9995 0.4983
vt 0.0005 0.5229 0.7639
vt 0.9995 0.5229 0.7639
vt 0.0005 0.1688 0.4081
vt 0.9995 0.1688 0.4081
vt 0.9995 0.4748 0.7345
vt 0.0005 0.4748 0.7345
vt 0.0005 0.0005 0.5054
vt 0.9995 0.0005 0.5054
vt 0.0005 0.0005 0.0005
vt 0.4946 0.0005 0.0005
vt 0.4946 0.9995 0.0005
vt 0.9995 0.0005 0.9995
vt 0.4983 0.9995 0.0005
vt 0.2727 0.5229 0.0005
vt 0.7639 0.5229 0.0005
vt 0.9995 0.0005 0.0005
vt 0.7345 0.4748 0.0005
vt 0.4081 0.1688 0.0005
vt 0.5054 0.0005 0.0005
vt 0.5017 0.9995 0.9995
vt 0.2361 0.5229 0.9995
vt 0.7273 0.5229 0.9995
vt 0.9995 0.9995 0.9995
vt 0.5919 0.1688 0.9995
vt 0.2655 0.4748 0.9995
vt 0.4946 0.0005 0.9995
# 40 texture coords

g blockBlue
usemtl _caixablue
s 2
f 17/42/10 18/43/10 19/44/10 20/45/10 
s 4
f 21/46/11 22/47/11 18/48/11 17/49/11 
s 8
f 23/50/12 24/51/12 22/52/12 21/53/12 
s 17
f 20/54/13 19/55/13 24/56/13 23/57/13 
s 2
f 25/58/14 26/59/14 27/60/14 28/61/14 
s 4
f 29/62/15 30/63/15 26/59/15 25/58/15 
s 8
f 31/49/12 32/64/12 30/65/12 29/66/12 
s 17
f 28/60/16 27/61/16 32/43/16 31/67/16 
s 1024
f 19/68/17 18/49/17 22/69/17 24/70/17 
f 32/71/17 27/72/17 26/73/17 30/74/17 
f 20/75/18 23/76/18 21/77/18 17/78/18 
f 25/79/18 28/80/18 31/43/18 29/81/18 
# 12 polygons

